<?xml version="1.0" encoding="utf-8"?>
<!-- Created by sK1 2.0rc5 (https://sk1project.net/) -->
<svg xmlns="http://www.w3.org/2000/svg" height="480.0px" width="640.0px" version="1.1" xmlns:xlink="http://www.w3.org/1999/xlink" id="ddd10058-7747-11ec-8126-0800274c9262">

<g>
	<path style="stroke:#2d2c2b;stroke-width:0.2835;stroke-miterlimit:10.433;fill:#000000;" d="M 0.0001,480.464 L 0.0001,0.4668 639.9999,0.4668 639.9999,480.464 0.0001,480.464 Z" />
	<g>
		<path style="fill:#e03c3b;" d="M 113.4725,11.7923 C 111.8075,21.7881 106.9607,30.4056 100.0588,36.7054 92.1142,31.5173 82.6392,28.459 72.4142,28.459 62.185,28.459 52.6975,31.5194 44.7934,36.7515 37.9064,30.4753 33.0771,21.9607 31.3956,12.3282 30.9871,14.1598 30.7658,16.5731 30.7476,19.0359 30.759,27.7942 33.3286,35.9189 37.7294,42.684 28.255,51.609 22.415,64.3131 22.415,78.459 22.415,106.159 44.715,128.459 72.415,128.459 100.115,128.459 122.415,106.159 122.415,78.459 122.415,64.3173 116.5775,51.6173 107.2067,42.5381 111.5089,35.924 114.0753,27.7958 114.0817,19.0544 114.0807,16.4874 113.8594,13.9757 113.4361,11.5356 L 113.4725,11.7923 Z" />
		<g>
			<path style="fill-opacity:0.2;fill:#000000;" d="M 68.2476,93.0405 C 63.3143,101.0114 52.3893,103.7405 43.848,99.1364 35.3051,94.5364 32.378,84.3447 37.3101,76.3739 L 68.2476,93.0405 Z" />
			<path style="fill-opacity:0.2;fill:#000000;" d="M 76.5809,93.0405 C 81.5134,101.0114 92.4372,103.7422 100.9805,99.1401 109.5222,94.536 112.4513,84.3443 107.518,76.3735 L 76.5809,93.0405 Z" />
		</g>
		<path style="fill:#ffffff;" d="M 68.2475,90.9586 C 63.3142,98.9294 52.3892,101.6586 43.8475,97.0544 35.3059,92.4544 32.3788,82.2627 37.31,74.2919 L 68.2475,90.9586 Z" />
		<path style="fill:#2c2c2c;" d="M 51.8079,82.1044 L 51.8079,82.6252 C 50.9084,87.2192 52.6805,92.7094 57.2482,98.7548 57.3006,98.7421 57.3545,98.7354 57.4068,98.7222 55.177,94.4662 55.5414,89.7216 57.712,85.2822 L 51.8078,82.1052 51.8079,82.1044 Z" />
		<path style="fill:#ffffff;" d="M 76.5809,90.9586 C 81.5142,98.9294 92.4392,101.6586 100.9809,97.0544 109.5238,92.4544 112.4509,82.2627 107.5188,74.2919 L 76.5809,90.9586 Z" />
		<path style="fill:#2c2c2c;" d="M 93.0204,82.1044 L 93.0204,82.6252 C 93.92,87.2192 92.1479,92.7094 87.5802,98.7548 87.5278,98.7421 87.4739,98.7354 87.4215,98.7222 89.6513,94.4662 89.287,89.7216 87.1164,85.2822 L 93.0205,82.1043 93.0204,82.1044 Z" />
		<path style="fill-opacity:0.2;fill:#ffffff;" d="M 113.4704,11.7919 C 111.806,21.7874 106.9599,30.4049 100.0587,36.705 92.1142,31.5169 82.6392,28.4586 72.4142,28.4586 62.185,28.4586 52.6975,31.519 44.7934,36.7502 37.9064,30.4741 33.0771,21.9595 31.3956,12.327 30.9871,14.1584 30.7658,16.5716 30.7476,19.0342 30.7624,19.4508 30.7781,19.7676 30.7971,20.0835 30.8573,17.8562 31.0608,15.8538 31.3941,13.8971 33.0771,24.0424 37.9064,32.557 44.7522,38.7935 52.6975,33.6019 62.185,30.5415 72.4142,30.5415 82.6392,30.5415 92.1142,33.5998 100.0184,38.8269 106.9599,32.4878 111.806,23.8703 113.4353,14.1272 113.793,15.7497 113.9976,17.9317 114.0366,20.155 114.0535,19.9054 114.0693,19.5071 114.0797,19.1074 114.0791,16.485 113.857,13.9738 113.4331,11.5341 L 113.4704,11.7919 Z M 36.8684,43.3065 C 27.9434,52.3273 22.4142,64.7065 22.4142,78.4586 22.4142,78.8148 22.4352,79.1669 22.4427,79.5211 22.7173,65.7856 28.4809,53.4711 37.6329,44.6127 37.4748,44.3647 37.2217,43.9382 36.9758,43.5069 L 36.8684,43.3065 Z M 107.96,43.3065 C 107.6085,43.9467 107.358,44.376 107.1004,44.8004 116.3475,53.4794 122.11,65.7919 122.385,79.5211 122.3934,79.1669 122.4142,78.8148 122.4142,78.4586 122.4142,64.7065 116.8829,52.3273 107.96,43.3065 Z" />
		<path style="fill-opacity:0.2;fill:#000000;" d="M 30.7913,19.9625 C 30.7745,20.2622 30.7587,20.6705 30.7486,21.0803 30.7718,29.3379 33.0469,36.9923 36.9721,43.4882 37.1239,43.049 37.3723,42.7829 37.6333,42.5301 33.5015,36.1642 30.9725,28.384 30.7925,20.0108 L 30.7913,19.9625 Z M 114.0371,20.1944 C 113.8153,28.5365 111.2952,36.2327 107.1069,42.6937 107.4619,42.7882 107.7079,43.0517 107.9606,43.3072 111.7821,36.9922 114.0572,29.3378 114.0814,21.1411 114.067,20.7282 114.0513,20.4016 114.032,20.076 L 114.0371,20.1944 Z M 22.4434,79.5215 C 22.4365,79.8631 22.4148,80.1986 22.4148,80.5423 22.4148,108.2423 44.7148,130.5423 72.4148,130.5423 100.1148,130.5423 122.4148,108.2423 122.4148,80.5423 122.4148,80.1986 122.394,79.8631 122.3857,79.5215 121.8232,106.7236 99.7586,128.459 72.4148,128.459 45.0711,128.459 23.0065,106.7236 22.444,79.5215 L 22.4434,79.5215 Z" />
	</g>
</g>
</svg>